<svg width="512" height="512" viewBox="0 0 512 512" xmlns="http://www.w3.org/2000/svg" role="img" aria-label="Salame Hôtel icon">
  <defs>
    <linearGradient id="bg" x1="0" x2="1" y1="0" y2="1">
      <stop offset="0%" stop-color="#111827"/>
      <stop offset="100%" stop-color="#020617"/>
    </linearGradient>
    <linearGradient id="roof" x1="0" x2="1" y1="0" y2="0">
      <stop offset="0%" stop-color="#f59e0b"/>
      <stop offset="100%" stop-color="#d97706"/>
    </linearGradient>
  </defs>

  <rect x="24" y="24" width="464" height="464" rx="120" fill="url(#bg)"/>
  <rect x="92" y="92" width="328" height="328" rx="88" fill="#0f172a" opacity="0.9"/>

  <polygon points="256,94 382,196 136,196" fill="url(#roof)"/>
  <rect x="162" y="190" width="188" height="170" rx="18" fill="#111827" stroke="#f59e0b" stroke-width="4"/>

  <rect x="182" y="210" width="36" height="36" rx="8" fill="#f8d77a"/>
  <rect x="238" y="210" width="36" height="36" rx="8" fill="#f8d77a"/>
  <rect x="294" y="210" width="36" height="36" rx="8" fill="#f8d77a"/>

  <rect x="182" y="268" width="36" height="36" rx="8" fill="#f8d77a"/>
  <rect x="238" y="268" width="36" height="36" rx="8" fill="#f8d77a"/>
  <rect x="294" y="268" width="36" height="36" rx="8" fill="#f8d77a"/>

  <rect x="232" y="314" width="48" height="56" rx="6" fill="#d97706"/>
  <circle cx="256" cy="341" r="5" fill="#fff7ed"/>

  <rect x="154" y="334" width="204" height="8" rx="4" fill="#f59e0b"/>
</svg>
